  0
SECTION
  2
HEADER
  9
$ACADVER
  1
AC1024
  9
$ACADMAINTVER
 70
6
  9
$DWGCODEPAGE
  3
ANSI_1252
  9
$LASTSAVEDBY
  1
ezdxf
  9
$INSBASE
 10
0.0
 20
0.0
 30
0.0
  9
$EXTMIN
 10
-100
 20
-100
 30
-100
  9
$EXTMAX
 10
100
 20
100
 30
100
  9
$LIMMIN
 10
0.0
 20
0.0
  9
$LIMMAX
 10
420.0
 20
297.0
  9
$ORTHOMODE
 70
0
  9
$REGENMODE
 70
1
  9
$FILLMODE
 70
1
  9
$QTEXTMODE
 70
0
  9
$MIRRTEXT
 70
1
  9
$LTSCALE
 40
1.0
  9
$ATTMODE
 70
1
  9
$TEXTSIZE
 40
2.5
  9
$TRACEWID
 40
1.0
  9
$TEXTSTYLE
  7
Standard
  9
$CLAYER
  8
0
  9
$CELTYPE
  6
ByLayer
  9
$CECOLOR
 62
256
  9
$CELTSCALE
 40
1.0
  9
$DISPSILH
 70
0
  9
$DIMSCALE
 40
1.0
  9
$DIMASZ
 40
2.5
  9
$DIMEXO
 40
0.625
  9
$DIMDLI
 40
3.75
  9
$DIMRND
 40
0.0
  9
$DIMDLE
 40
0.0
  9
$DIMEXE
 40
1.25
  9
$DIMTP
 40
0.0
  9
$DIMTM
 40
0.0
  9
$DIMTXT
 40
2.5
  9
$DIMCEN
 40
2.5
  9
$DIMTSZ
 40
0.0
  9
$DIMTOL
 70
0
  9
$DIMLIM
 70
0
  9
$DIMTIH
 70
0
  9
$DIMTOH
 70
0
  9
$DIMSE1
 70
0
  9
$DIMSE2
 70
0
  9
$DIMTAD
 70
1
  9
$DIMZIN
 70
8
  9
$DIMBLK
  1

  9
$DIMASO
 70
1
  9
$DIMSHO
 70
1
  9
$DIMPOST
  1

  9
$DIMAPOST
  1

  9
$DIMALT
 70
0
  9
$DIMALTD
 70
3
  9
$DIMALTF
 40
0.03937007874
  9
$DIMLFAC
 40
1.0
  9
$DIMTOFL
 70
1
  9
$DIMTVP
 40
0.0
  9
$DIMTIX
 70
0
  9
$DIMSOXD
 70
0
  9
$DIMSAH
 70
0
  9
$DIMBLK1
  1

  9
$DIMBLK2
  1

  9
$DIMSTYLE
  2
ISO-25
  9
$DIMCLRD
 70
0
  9
$DIMCLRE
 70
0
  9
$DIMCLRT
 70
0
  9
$DIMTFAC
 40
1.0
  9
$DIMGAP
 40
0.625
  9
$DIMJUST
 70
0
  9
$DIMSD1
 70
0
  9
$DIMSD2
 70
0
  9
$DIMTOLJ
 70
0
  9
$DIMTZIN
 70
8
  9
$DIMALTZ
 70
0
  9
$DIMALTTZ
 70
0
  9
$DIMUPT
 70
0
  9
$DIMDEC
 70
2
  9
$DIMTDEC
 70
2
  9
$DIMALTU
 70
2
  9
$DIMALTTD
 70
3
  9
$DIMTXSTY
  7
Standard
  9
$DIMAUNIT
 70
0
  9
$DIMADEC
 70
0
  9
$DIMALTRND
 40
0.0
  9
$DIMAZIN
 70
0
  9
$DIMDSEP
 70
44
  9
$DIMATFIT
 70
3
  9
$DIMFRAC
 70
0
  9
$DIMLDRBLK
  1

  9
$DIMLUNIT
 70
2
  9
$DIMLWD
 70
-2
  9
$DIMLWE
 70
-2
  9
$DIMTMOVE
 70
0
  9
$DIMFXL
 40
1.0
  9
$DIMFXLON
 70
0
  9
$DIMJOGANG
 40
0.785398163397
  9
$DIMTFILL
 70
0
  9
$DIMTFILLCLR
 70
0
  9
$DIMARCSYM
 70
0
  9
$DIMLTYPE
  6

  9
$DIMLTEX1
  6

  9
$DIMLTEX2
  6

  9
$DIMTXTDIRECTION
 70
0
  9
$LUNITS
 70
2
  9
$LUPREC
 70
4
  9
$SKETCHINC
 40
1.0
  9
$FILLETRAD
 40
10.0
  9
$AUNITS
 70
0
  9
$AUPREC
 70
2
  9
$MENU
  1
.
  9
$ELEVATION
 40
0.0
  9
$PELEVATION
 40
0.0
  9
$THICKNESS
 40
0.0
  9
$LIMCHECK
 70
0
  9
$CHAMFERA
 40
0.0
  9
$CHAMFERB
 40
0.0
  9
$CHAMFERC
 40
0.0
  9
$CHAMFERD
 40
0.0
  9
$SKPOLY
 70
0
  9
$TDCREATE
 40
2459104.849259259
  9
$TDUCREATE
 40
2458532.153996898
  9
$TDUPDATE
 40
2459104.849259259
  9
$TDUUPDATE
 40
2458532.1544311
  9
$TDINDWG
 40
0.0
  9
$TDUSRTIMER
 40
0.0
  9
$USRTIMER
 70
1
  9
$ANGBASE
 50
0.0
  9
$ANGDIR
 70
0
  9
$PDMODE
 70
0
  9
$PDSIZE
 40
0.0
  9
$PLINEWID
 40
0.0
  9
$SPLFRAME
 70
0
  9
$SPLINETYPE
 70
6
  9
$SPLINESEGS
 70
8
  9
$HANDSEED
  5
141
  9
$SURFTAB1
 70
6
  9
$SURFTAB2
 70
6
  9
$SURFTYPE
 70
6
  9
$SURFU
 70
6
  9
$SURFV
 70
6
  9
$UCSBASE
  2

  9
$UCSNAME
  2

  9
$UCSORG
 10
0.0
 20
0.0
 30
0.0
  9
$UCSXDIR
 10
1.0
 20
0.0
 30
0.0
  9
$UCSYDIR
 10
0.0
 20
1.0
 30
0.0
  9
$UCSORTHOREF
  2

  9
$UCSORTHOVIEW
 70
0
  9
$UCSORGTOP
 10
0.0
 20
0.0
 30
0.0
  9
$UCSORGBOTTOM
 10
0.0
 20
0.0
 30
0.0
  9
$UCSORGLEFT
 10
0.0
 20
0.0
 30
0.0
  9
$UCSORGRIGHT
 10
0.0
 20
0.0
 30
0.0
  9
$UCSORGFRONT
 10
0.0
 20
0.0
 30
0.0
  9
$UCSORGBACK
 10
0.0
 20
0.0
 30
0.0
  9
$PUCSBASE
  2

  9
$PUCSNAME
  2

  9
$PUCSORG
 10
0.0
 20
0.0
 30
0.0
  9
$PUCSXDIR
 10
1.0
 20
0.0
 30
0.0
  9
$PUCSYDIR
 10
0.0
 20
1.0
 30
0.0
  9
$PUCSORTHOREF
  2

  9
$PUCSORTHOVIEW
 70
0
  9
$PUCSORGTOP
 10
0.0
 20
0.0
 30
0.0
  9
$PUCSORGBOTTOM
 10
0.0
 20
0.0
 30
0.0
  9
$PUCSORGLEFT
 10
0.0
 20
0.0
 30
0.0
  9
$PUCSORGRIGHT
 10
0.0
 20
0.0
 30
0.0
  9
$PUCSORGFRONT
 10
0.0
 20
0.0
 30
0.0
  9
$PUCSORGBACK
 10
0.0
 20
0.0
 30
0.0
  9
$USERI1
 70
0
  9
$USERI2
 70
0
  9
$USERI3
 70
0
  9
$USERI4
 70
0
  9
$USERI5
 70
0
  9
$USERR1
 40
0.0
  9
$USERR2
 40
0.0
  9
$USERR3
 40
0.0
  9
$USERR4
 40
0.0
  9
$USERR5
 40
0.0
  9
$WORLDVIEW
 70
1
  9
$SHADEDGE
 70
3
  9
$SHADEDIF
 70
70
  9
$TILEMODE
 70
1
  9
$MAXACTVP
 70
64
  9
$PINSBASE
 10
0.0
 20
0.0
 30
0.0
  9
$PLIMCHECK
 70
0
  9
$PEXTMIN
 10
1e+20
 20
1e+20
 30
1e+20
  9
$PEXTMAX
 10
-1e+20
 20
-1e+20
 30
-1e+20
  9
$PLIMMIN
 10
0.0
 20
0.0
  9
$PLIMMAX
 10
420.0
 20
297.0
  9
$UNITMODE
 70
0
  9
$VISRETAIN
 70
1
  9
$PLINEGEN
 70
0
  9
$PSLTSCALE
 70
1
  9
$TREEDEPTH
 70
3020
  9
$CMLSTYLE
  2
Standard
  9
$CMLJUST
 70
0
  9
$CMLSCALE
 40
20.0
  9
$PROXYGRAPHICS
 70
1
  9
$MEASUREMENT
 70
1
  9
$CELWEIGHT
370
-1
  9
$ENDCAPS
280
0
  9
$JOINSTYLE
280
0
  9
$LWDISPLAY
290
0
  9
$INSUNITS
 70
6
  9
$HYPERLINKBASE
  1

  9
$STYLESHEET
  1

  9
$XEDIT
290
1
  9
$CEPSNTYPE
380
0
  9
$PSTYLEMODE
290
1
  9
$FINGERPRINTGUID
  2
40496A20-F4A7-11EA-A623-001A7DDA7113
  9
$VERSIONGUID
  2
404B6607-F4A7-11EA-9A86-001A7DDA7113
  9
$EXTNAMES
290
1
  9
$PSVPSCALE
 40
0.0
  9
$OLESTARTUP
290
0
  9
$SORTENTS
280
127
  9
$INDEXCTL
280
0
  9
$HIDETEXT
280
1
  9
$XCLIPFRAME
280
2
  9
$HALOGAP
280
0
  9
$OBSCOLOR
 70
257
  9
$OBSLTYPE
280
0
  9
$INTERSECTIONDISPLAY
280
0
  9
$INTERSECTIONCOLOR
 70
257
  9
$DIMASSOC
280
2
  9
$PROJECTNAME
  1

  9
$CAMERADISPLAY
290
0
  9
$LENSLENGTH
 40
50.0
  9
$CAMERAHEIGHT
 40
0.0
  9
$STEPSPERSEC
 40
24.0
  9
$STEPSIZE
 40
100.0
  9
$3DDWFPREC
 40
2.0
  9
$PSOLWIDTH
 40
0.005
  9
$PSOLHEIGHT
 40
0.08
  9
$LOFTANG1
 40
1.570796326795
  9
$LOFTANG2
 40
1.570796326795
  9
$LOFTMAG1
 40
0.0
  9
$LOFTMAG2
 40
0.0
  9
$LOFTPARAM
 70
7
  9
$LOFTNORMALS
280
1
  9
$LATITUDE
 40
37.795
  9
$LONGITUDE
 40
-122.394
  9
$NORTHDIRECTION
 40
0.0
  9
$TIMEZONE
 70
-8000
  9
$LIGHTGLYPHDISPLAY
280
1
  9
$TILEMODELIGHTSYNCH
280
1
  9
$CMATERIAL
347
20
  9
$SOLIDHIST
280
0
  9
$SHOWHIST
280
1
  9
$DWFFRAME
280
2
  9
$DGNFRAME
280
2
  9
$REALWORLDSCALE
290
1
  9
$INTERFERECOLOR
 62
256
  9
$CSHADOW
280
0
  9
$SHADOWPLANELOCATION
 40
0.0
  0
ENDSEC
  0
SECTION
  2
CLASSES
  0
CLASS
  1
ACDBDICTIONARYWDFLT
  2
AcDbDictionaryWithDefault
  3
ObjectDBX Classes
 90
0
 91
0
280
0
281
0
  0
CLASS
  1
SUN
  2
AcDbSun
  3
SCENEOE
 90
1153
 91
0
280
0
281
0
  0
CLASS
  1
VISUALSTYLE
  2
AcDbVisualStyle
  3
ObjectDBX Classes
 90
4095
 91
0
280
0
281
0
  0
CLASS
  1
MATERIAL
  2
AcDbMaterial
  3
ObjectDBX Classes
 90
1153
 91
0
280
0
281
0
  0
CLASS
  1
SCALE
  2
AcDbScale
  3
ObjectDBX Classes
 90
1153
 91
0
280
0
281
0
  0
CLASS
  1
TABLESTYLE
  2
AcDbTableStyle
  3
ObjectDBX Classes
 90
4095
 91
0
280
0
281
0
  0
CLASS
  1
MLEADERSTYLE
  2
AcDbMLeaderStyle
  3
ACDB_MLEADERSTYLE_CLASS
 90
4095
 91
0
280
0
281
0
  0
CLASS
  1
DICTIONARYVAR
  2
AcDbDictionaryVar
  3
ObjectDBX Classes
 90
0
 91
0
280
0
281
0
  0
CLASS
  1
CELLSTYLEMAP
  2
AcDbCellStyleMap
  3
ObjectDBX Classes
 90
1152
 91
0
280
0
281
0
  0
CLASS
  1
MENTALRAYRENDERSETTINGS
  2
AcDbMentalRayRenderSettings
  3
SCENEOE
 90
1024
 91
0
280
0
281
0
  0
CLASS
  1
ACDBDETAILVIEWSTYLE
  2
AcDbDetailViewStyle
  3
ObjectDBX Classes
 90
1025
 91
0
280
0
281
0
  0
CLASS
  1
ACDBSECTIONVIEWSTYLE
  2
AcDbSectionViewStyle
  3
ObjectDBX Classes
 90
1025
 91
0
280
0
281
0
  0
CLASS
  1
RASTERVARIABLES
  2
AcDbRasterVariables
  3
ISM
 90
0
 91
0
280
0
281
0
  0
CLASS
  1
LAYOUT
  2
AcDbLayout
  3
ObjectDBX Classes
 90
0
 91
0
280
0
281
0
  0
CLASS
  1
ACDBPLACEHOLDER
  2
AcDbPlaceHolder
  3
ObjectDBX Classes
 90
0
 91
0
280
0
281
0
  0
ENDSEC
  0
SECTION
  2
TABLES
  0
TABLE
  2
VPORT
  5
8
330
0
100
AcDbSymbolTable
 70
1
  0
VPORT
  5
23
330
8
100
AcDbSymbolTableRecord
100
AcDbViewportTableRecord
  2
*Active
 70
0
 10
0.0
 20
0.0
 11
1.0
 21
1.0
 12
70.0
 22
50.0
 13
0.0
 23
0.0
 14
0.5
 24
0.5
 15
0.5
 25
0.5
 16
0.0
 26
0.0
 36
1.0
 17
0.0
 27
0.0
 37
0.0
 40
1.0
 41
1.34
 42
50.0
 43
0.0
 44
0.0
 50
0.0
 51
0.0
 71
0
 72
1000
 73
1
 74
3
 75
0
 76
0
 77
0
 78
0
281
0
 65
0
146
0.0
  0
ENDTAB
  0
TABLE
  2
LTYPE
  5
2
330
0
100
AcDbSymbolTable
 70
3
  0
LTYPE
  5
24
330
2
100
AcDbSymbolTableRecord
100
AcDbLinetypeTableRecord
  2
ByBlock
 70
0
  3

 72
65
 73
0
 40
0.0
  0
LTYPE
  5
25
330
2
100
AcDbSymbolTableRecord
100
AcDbLinetypeTableRecord
  2
ByLayer
 70
0
  3

 72
65
 73
0
 40
0.0
  0
LTYPE
  5
26
330
2
100
AcDbSymbolTableRecord
100
AcDbLinetypeTableRecord
  2
Continuous
 70
0
  3

 72
65
 73
0
 40
0.0
  0
ENDTAB
  0
TABLE
  2
LAYER
  5
1
330
0
100
AcDbSymbolTable
 70
2
  0
LAYER
  5
27
330
1
100
AcDbSymbolTableRecord
100
AcDbLayerTableRecord
  2
0
 70
0
 62
7
  6
Continuous
370
-3
390
13
347
21
  0
LAYER
  5
28
330
1
100
AcDbSymbolTableRecord
100
AcDbLayerTableRecord
  2
Defpoints
 70
0
 62
7
  6
Continuous
290
0
370
-3
390
13
347
21
  0
ENDTAB
  0
TABLE
  2
STYLE
  5
5
330
0
100
AcDbSymbolTable
 70
1
  0
STYLE
  5
29
330
5
100
AcDbSymbolTableRecord
100
AcDbTextStyleTableRecord
  2
Standard
 70
0
 40
0.0
 41
1.0
 50
0.0
 71
0
 42
2.5
  3
txt
  4

  0
ENDTAB
  0
TABLE
  2
VIEW
  5
7
330
0
100
AcDbSymbolTable
 70
0
  0
ENDTAB
  0
TABLE
  2
UCS
  5
6
330
0
100
AcDbSymbolTable
 70
0
  0
ENDTAB
  0
TABLE
  2
APPID
  5
3
330
0
100
AcDbSymbolTable
 70
1
  0
APPID
  5
2A
330
3
100
AcDbSymbolTableRecord
100
AcDbRegAppTableRecord
  2
ACAD
 70
0
  0
ENDTAB
  0
TABLE
  2
DIMSTYLE
  5
4
330
0
100
AcDbSymbolTable
 70
1
100
AcDbDimStyleTable
  0
DIMSTYLE
105
2B
330
4
100
AcDbSymbolTableRecord
100
AcDbDimStyleTableRecord
  2
Standard
 70
0
 40
1.0
 41
2.5
 42
0.625
 43
3.75
 44
1.25
 45
0.0
 46
0.0
 47
0.0
 48
0.0
 49
2.5
140
2.5
141
2.5
142
0.0
143
0.03937007874
144
1.0
145
0.0
146
1.0
147
0.625
148
0.0
 69
0
 70
0
 71
0
 72
0
 73
0
 74
0
 75
0
 76
0
 77
1
 78
8
 79
0
170
0
171
3
172
1
173
0
174
0
175
0
176
0
177
0
178
0
179
0
271
0
272
2
273
2
274
3
275
0
276
0
277
2
278
44
279
0
280
0
281
0
282
0
283
0
284
8
285
0
286
0
288
0
289
3
290
0
371
-2
372
-2
  0
ENDTAB
  0
TABLE
  2
BLOCK_RECORD
  5
9
330
0
100
AcDbSymbolTable
 70
2
  0
BLOCK_RECORD
  5
17
330
9
100
AcDbSymbolTableRecord
100
AcDbBlockTableRecord
  2
*Model_Space
340
1A
 70
0
280
1
281
0
  0
BLOCK_RECORD
  5
1B
330
9
100
AcDbSymbolTableRecord
100
AcDbBlockTableRecord
  2
*Paper_Space
340
1E
 70
0
280
1
281
0
  0
ENDTAB
  0
ENDSEC
  0
SECTION
  2
BLOCKS
  0
BLOCK
  5
18
330
17
100
AcDbEntity
  8
0
100
AcDbBlockBegin
  2
*Model_Space
 70
0
 10
0.0
 20
0.0
 30
0.0
  3
*Model_Space
  1

  0
ENDBLK
  5
19
330
17
100
AcDbEntity
  8
0
100
AcDbBlockEnd
  0
BLOCK
  5
1C
330
1B
100
AcDbEntity
  8
0
100
AcDbBlockBegin
  2
*Paper_Space
 70
0
 10
0.0
 20
0.0
 30
0.0
  3
*Paper_Space
  1

  0
ENDBLK
  5
1D
330
1B
100
AcDbEntity
  8
0
100
AcDbBlockEnd
  0
ENDSEC
  0
SECTION
  2
ENTITIES
  0
LINE
  5
2D
330
17
100
AcDbEntity
  8
0
100
AcDbLine
 10
-0.06889763779527558
 20
-0.06889763779527558
 30
0.0
 11
0.06889763779527558
 21
-0.06889763779527558
 31
0.0
  0
LINE
  5
2E
330
17
100
AcDbEntity
  8
0
100
AcDbLine
 10
0.06889763779527558
 20
-0.06889763779527558
 30
0.0
 11
0.06889763779527558
 21
0.06889763779527558
 31
0.0
  0
LINE
  5
2F
330
17
100
AcDbEntity
  8
0
100
AcDbLine
 10
0.06889763779527558
 20
0.06889763779527558
 30
0.0
 11
-0.06889763779527558
 21
0.06889763779527558
 31
0.0
  0
LINE
  5
30
330
17
100
AcDbEntity
  8
0
100
AcDbLine
 10
-0.06889763779527558
 20
0.06889763779527558
 30
0.0
 11
-0.06889763779527558
 21
-0.06889763779527558
 31
0.0
  0
LINE
  5
31
330
17
100
AcDbEntity
  8
0
100
AcDbLine
 10
0.9153543307086613
 20
-0.26574803149606296
 30
0.0
 11
1.0531496062992125
 21
-0.26574803149606296
 31
0.0
  0
LINE
  5
32
330
17
100
AcDbEntity
  8
0
100
AcDbLine
 10
1.0531496062992125
 20
-0.26574803149606296
 30
0.0
 11
1.0531496062992125
 21
-0.1279527559055118
 31
0.0
  0
LINE
  5
33
330
17
100
AcDbEntity
  8
0
100
AcDbLine
 10
1.0531496062992125
 20
-0.1279527559055118
 30
0.0
 11
0.9153543307086613
 21
-0.1279527559055118
 31
0.0
  0
LINE
  5
34
330
17
100
AcDbEntity
  8
0
100
AcDbLine
 10
0.9153543307086613
 20
-0.1279527559055118
 30
0.0
 11
0.9153543307086613
 21
-0.26574803149606296
 31
0.0
  0
LINE
  5
35
330
17
100
AcDbEntity
  8
0
100
AcDbLine
 10
2.0964566929133857
 20
-0.46259842519685035
 30
0.0
 11
2.2342519685039366
 21
-0.46259842519685035
 31
0.0
  0
LINE
  5
36
330
17
100
AcDbEntity
  8
0
100
AcDbLine
 10
2.2342519685039366
 20
-0.46259842519685035
 30
0.0
 11
2.2342519685039366
 21
-0.3248031496062992
 31
0.0
  0
LINE
  5
37
330
17
100
AcDbEntity
  8
0
100
AcDbLine
 10
2.2342519685039366
 20
-0.3248031496062992
 30
0.0
 11
2.0964566929133857
 21
-0.3248031496062992
 31
0.0
  0
LINE
  5
38
330
17
100
AcDbEntity
  8
0
100
AcDbLine
 10
2.0964566929133857
 20
-0.3248031496062992
 30
0.0
 11
2.0964566929133857
 21
-0.46259842519685035
 31
0.0
  0
LINE
  5
39
330
17
100
AcDbEntity
  8
0
100
AcDbLine
 10
3.27755905511811
 20
-0.6594488188976377
 30
0.0
 11
3.415354330708661
 21
-0.6594488188976377
 31
0.0
  0
LINE
  5
3A
330
17
100
AcDbEntity
  8
0
100
AcDbLine
 10
3.415354330708661
 20
-0.6594488188976377
 30
0.0
 11
3.415354330708661
 21
-0.5216535433070866
 31
0.0
  0
LINE
  5
3B
330
17
100
AcDbEntity
  8
0
100
AcDbLine
 10
3.415354330708661
 20
-0.5216535433070866
 30
0.0
 11
3.27755905511811
 21
-0.5216535433070866
 31
0.0
  0
LINE
  5
3C
330
17
100
AcDbEntity
  8
0
100
AcDbLine
 10
3.27755905511811
 20
-0.5216535433070866
 30
0.0
 11
3.27755905511811
 21
-0.6594488188976377
 31
0.0
  0
LINE
  5
3D
330
17
100
AcDbEntity
  8
0
100
AcDbLine
 10
3.4744094488188977
 20
-0.8562992125984251
 30
0.0
 11
3.6122047244094486
 21
-0.8562992125984251
 31
0.0
  0
LINE
  5
3E
330
17
100
AcDbEntity
  8
0
100
AcDbLine
 10
3.6122047244094486
 20
-0.8562992125984251
 30
0.0
 11
3.6122047244094486
 21
-0.718503937007874
 31
0.0
  0
LINE
  5
3F
330
17
100
AcDbEntity
  8
0
100
AcDbLine
 10
3.6122047244094486
 20
-0.718503937007874
 30
0.0
 11
3.4744094488188977
 21
-0.718503937007874
 31
0.0
  0
LINE
  5
40
330
17
100
AcDbEntity
  8
0
100
AcDbLine
 10
3.4744094488188977
 20
-0.718503937007874
 30
0.0
 11
3.4744094488188977
 21
-0.8562992125984251
 31
0.0
  0
LINE
  5
41
330
17
100
AcDbEntity
  8
0
100
AcDbLine
 10
4.261811023622046
 20
-1.0531496062992125
 30
0.0
 11
4.399606299212598
 21
-1.0531496062992125
 31
0.0
  0
LINE
  5
42
330
17
100
AcDbEntity
  8
0
100
AcDbLine
 10
4.399606299212598
 20
-1.0531496062992125
 30
0.0
 11
4.399606299212598
 21
-0.9153543307086613
 31
0.0
  0
LINE
  5
43
330
17
100
AcDbEntity
  8
0
100
AcDbLine
 10
4.399606299212598
 20
-0.9153543307086613
 30
0.0
 11
4.261811023622046
 21
-0.9153543307086613
 31
0.0
  0
LINE
  5
44
330
17
100
AcDbEntity
  8
0
100
AcDbLine
 10
4.261811023622046
 20
-0.9153543307086613
 30
0.0
 11
4.261811023622046
 21
-1.0531496062992125
 31
0.0
  0
LINE
  5
45
330
17
100
AcDbEntity
  8
0
100
AcDbLine
 10
4.852362204724408
 20
-1.25
 30
0.0
 11
4.99015748031496
 21
-1.25
 31
0.0
  0
LINE
  5
46
330
17
100
AcDbEntity
  8
0
100
AcDbLine
 10
4.99015748031496
 20
-1.25
 30
0.0
 11
4.99015748031496
 21
-1.1122047244094486
 31
0.0
  0
LINE
  5
47
330
17
100
AcDbEntity
  8
0
100
AcDbLine
 10
4.99015748031496
 20
-1.1122047244094486
 30
0.0
 11
4.852362204724408
 21
-1.1122047244094486
 31
0.0
  0
LINE
  5
48
330
17
100
AcDbEntity
  8
0
100
AcDbLine
 10
4.852362204724408
 20
-1.1122047244094486
 30
0.0
 11
4.852362204724408
 21
-1.25
 31
0.0
  0
LINE
  5
49
330
17
100
AcDbEntity
  8
0
100
AcDbLine
 10
5.246062992125983
 20
-1.446850393700787
 30
0.0
 11
5.383858267716535
 21
-1.446850393700787
 31
0.0
  0
LINE
  5
4A
330
17
100
AcDbEntity
  8
0
100
AcDbLine
 10
5.383858267716535
 20
-1.446850393700787
 30
0.0
 11
5.383858267716535
 21
-1.3090551181102361
 31
0.0
  0
LINE
  5
4B
330
17
100
AcDbEntity
  8
0
100
AcDbLine
 10
5.383858267716535
 20
-1.3090551181102361
 30
0.0
 11
5.246062992125983
 21
-1.3090551181102361
 31
0.0
  0
LINE
  5
4C
330
17
100
AcDbEntity
  8
0
100
AcDbLine
 10
5.246062992125983
 20
-1.3090551181102361
 30
0.0
 11
5.246062992125983
 21
-1.446850393700787
 31
0.0
  0
LINE
  5
4D
330
17
100
AcDbEntity
  8
0
100
AcDbLine
 10
5.639763779527558
 20
-1.6437007874015745
 30
0.0
 11
5.77755905511811
 21
-1.6437007874015745
 31
0.0
  0
LINE
  5
4E
330
17
100
AcDbEntity
  8
0
100
AcDbLine
 10
5.77755905511811
 20
-1.6437007874015745
 30
0.0
 11
5.77755905511811
 21
-1.5059055118110236
 31
0.0
  0
LINE
  5
4F
330
17
100
AcDbEntity
  8
0
100
AcDbLine
 10
5.77755905511811
 20
-1.5059055118110236
 30
0.0
 11
5.639763779527558
 21
-1.5059055118110236
 31
0.0
  0
LINE
  5
50
330
17
100
AcDbEntity
  8
0
100
AcDbLine
 10
5.639763779527558
 20
-1.5059055118110236
 30
0.0
 11
5.639763779527558
 21
-1.6437007874015745
 31
0.0
  0
LINE
  5
51
330
17
100
AcDbEntity
  8
0
100
AcDbLine
 10
-0.06889763779527558
 20
-1.840551181102362
 30
0.0
 11
0.06889763779527558
 21
-1.840551181102362
 31
0.0
  0
LINE
  5
52
330
17
100
AcDbEntity
  8
0
100
AcDbLine
 10
0.06889763779527558
 20
-1.840551181102362
 30
0.0
 11
0.06889763779527558
 21
-1.702755905511811
 31
0.0
  0
LINE
  5
53
330
17
100
AcDbEntity
  8
0
100
AcDbLine
 10
0.06889763779527558
 20
-1.702755905511811
 30
0.0
 11
-0.06889763779527558
 21
-1.702755905511811
 31
0.0
  0
LINE
  5
54
330
17
100
AcDbEntity
  8
0
100
AcDbLine
 10
-0.06889763779527558
 20
-1.702755905511811
 30
0.0
 11
-0.06889763779527558
 21
-1.840551181102362
 31
0.0
  0
CIRCLE
  5
55
330
17
100
AcDbEntity
  8
0
100
AcDbCircle
 10
1.7716535433070866
 20
-1.7716535433070866
 30
0.0
 40
0.05905511811023621
  0
LINE
  5
56
330
17
100
AcDbEntity
  8
0
100
AcDbLine
 10
0.0
 20
-1.7716535433070866
 30
0.0
 11
1.7716535433070866
 21
-1.7716535433070866
 31
0.0
  0
LINE
  5
57
330
17
100
AcDbEntity
  8
0
100
AcDbLine
 10
1.702755905511811
 20
-2.0374015748031495
 30
0.0
 11
1.840551181102362
 21
-2.0374015748031495
 31
0.0
  0
LINE
  5
58
330
17
100
AcDbEntity
  8
0
100
AcDbLine
 10
1.840551181102362
 20
-2.0374015748031495
 30
0.0
 11
1.840551181102362
 21
-1.8996062992125982
 31
0.0
  0
LINE
  5
59
330
17
100
AcDbEntity
  8
0
100
AcDbLine
 10
1.840551181102362
 20
-1.8996062992125982
 30
0.0
 11
1.702755905511811
 21
-1.8996062992125982
 31
0.0
  0
LINE
  5
5A
330
17
100
AcDbEntity
  8
0
100
AcDbLine
 10
1.702755905511811
 20
-1.8996062992125982
 30
0.0
 11
1.702755905511811
 21
-2.0374015748031495
 31
0.0
  0
CIRCLE
  5
5B
330
17
100
AcDbEntity
  8
0
100
AcDbCircle
 10
0.0
 20
-1.9685039370078738
 30
0.0
 40
0.05905511811023621
  0
LINE
  5
5C
330
17
100
AcDbEntity
  8
0
100
AcDbLine
 10
1.7716535433070866
 20
-1.9685039370078738
 30
0.0
 11
0.0
 21
-1.9685039370078738
 31
0.0
  0
LINE
  5
5D
330
17
100
AcDbEntity
  8
0
100
AcDbLine
 10
-0.06889763779527558
 20
-2.2342519685039366
 30
0.0
 11
0.06889763779527558
 21
-2.2342519685039366
 31
0.0
  0
LINE
  5
5E
330
17
100
AcDbEntity
  8
0
100
AcDbLine
 10
0.06889763779527558
 20
-2.2342519685039366
 30
0.0
 11
0.06889763779527558
 21
-2.0964566929133857
 31
0.0
  0
LINE
  5
5F
330
17
100
AcDbEntity
  8
0
100
AcDbLine
 10
0.06889763779527558
 20
-2.0964566929133857
 30
0.0
 11
-0.06889763779527558
 21
-2.0964566929133857
 31
0.0
  0
LINE
  5
60
330
17
100
AcDbEntity
  8
0
100
AcDbLine
 10
-0.06889763779527558
 20
-2.0964566929133857
 30
0.0
 11
-0.06889763779527558
 21
-2.2342519685039366
 31
0.0
  0
CIRCLE
  5
61
330
17
100
AcDbEntity
  8
0
100
AcDbCircle
 10
3.149606299212598
 20
-2.165354330708661
 30
0.0
 40
0.05905511811023621
  0
LINE
  5
62
330
17
100
AcDbEntity
  8
0
100
AcDbLine
 10
0.0
 20
-2.165354330708661
 30
0.0
 11
3.149606299212598
 21
-2.165354330708661
 31
0.0
  0
LINE
  5
63
330
17
100
AcDbEntity
  8
0
100
AcDbLine
 10
3.0807086614173227
 20
-2.431102362204724
 30
0.0
 11
3.2185039370078736
 21
-2.431102362204724
 31
0.0
  0
LINE
  5
64
330
17
100
AcDbEntity
  8
0
100
AcDbLine
 10
3.2185039370078736
 20
-2.431102362204724
 30
0.0
 11
3.2185039370078736
 21
-2.293307086614173
 31
0.0
  0
LINE
  5
65
330
17
100
AcDbEntity
  8
0
100
AcDbLine
 10
3.2185039370078736
 20
-2.293307086614173
 30
0.0
 11
3.0807086614173227
 21
-2.293307086614173
 31
0.0
  0
LINE
  5
66
330
17
100
AcDbEntity
  8
0
100
AcDbLine
 10
3.0807086614173227
 20
-2.293307086614173
 30
0.0
 11
3.0807086614173227
 21
-2.431102362204724
 31
0.0
  0
CIRCLE
  5
67
330
17
100
AcDbEntity
  8
0
100
AcDbCircle
 10
0.0
 20
-2.3622047244094486
 30
0.0
 40
0.05905511811023621
  0
LINE
  5
68
330
17
100
AcDbEntity
  8
0
100
AcDbLine
 10
3.149606299212598
 20
-2.3622047244094486
 30
0.0
 11
0.0
 21
-2.3622047244094486
 31
0.0
  0
LINE
  5
69
330
17
100
AcDbEntity
  8
0
100
AcDbLine
 10
-0.06889763779527558
 20
-2.6279527559055116
 30
0.0
 11
0.06889763779527558
 21
-2.6279527559055116
 31
0.0
  0
LINE
  5
6A
330
17
100
AcDbEntity
  8
0
100
AcDbLine
 10
0.06889763779527558
 20
-2.6279527559055116
 30
0.0
 11
0.06889763779527558
 21
-2.4901574803149606
 31
0.0
  0
LINE
  5
6B
330
17
100
AcDbEntity
  8
0
100
AcDbLine
 10
0.06889763779527558
 20
-2.4901574803149606
 30
0.0
 11
-0.06889763779527558
 21
-2.4901574803149606
 31
0.0
  0
LINE
  5
6C
330
17
100
AcDbEntity
  8
0
100
AcDbLine
 10
-0.06889763779527558
 20
-2.4901574803149606
 30
0.0
 11
-0.06889763779527558
 21
-2.6279527559055116
 31
0.0
  0
CIRCLE
  5
6D
330
17
100
AcDbEntity
  8
0
100
AcDbCircle
 10
3.9370078740157477
 20
-2.559055118110236
 30
0.0
 40
0.05905511811023621
  0
LINE
  5
6E
330
17
100
AcDbEntity
  8
0
100
AcDbLine
 10
0.0
 20
-2.559055118110236
 30
0.0
 11
3.9370078740157477
 21
-2.559055118110236
 31
0.0
  0
LINE
  5
6F
330
17
100
AcDbEntity
  8
0
100
AcDbLine
 10
3.8681102362204722
 20
-2.8248031496062986
 30
0.0
 11
4.005905511811023
 21
-2.8248031496062986
 31
0.0
  0
LINE
  5
70
330
17
100
AcDbEntity
  8
0
100
AcDbLine
 10
4.005905511811023
 20
-2.8248031496062986
 30
0.0
 11
4.005905511811023
 21
-2.6870078740157477
 31
0.0
  0
LINE
  5
71
330
17
100
AcDbEntity
  8
0
100
AcDbLine
 10
4.005905511811023
 20
-2.6870078740157477
 30
0.0
 11
3.8681102362204722
 21
-2.6870078740157477
 31
0.0
  0
LINE
  5
72
330
17
100
AcDbEntity
  8
0
100
AcDbLine
 10
3.8681102362204722
 20
-2.6870078740157477
 30
0.0
 11
3.8681102362204722
 21
-2.8248031496062986
 31
0.0
  0
CIRCLE
  5
73
330
17
100
AcDbEntity
  8
0
100
AcDbCircle
 10
0.0
 20
-2.755905511811023
 30
0.0
 40
0.05905511811023621
  0
LINE
  5
74
330
17
100
AcDbEntity
  8
0
100
AcDbLine
 10
3.9370078740157477
 20
-2.755905511811023
 30
0.0
 11
0.0
 21
-2.755905511811023
 31
0.0
  0
LINE
  5
75
330
17
100
AcDbEntity
  8
0
100
AcDbLine
 10
-0.06889763779527558
 20
-3.021653543307086
 30
0.0
 11
0.06889763779527558
 21
-3.021653543307086
 31
0.0
  0
LINE
  5
76
330
17
100
AcDbEntity
  8
0
100
AcDbLine
 10
0.06889763779527558
 20
-3.021653543307086
 30
0.0
 11
0.06889763779527558
 21
-2.883858267716535
 31
0.0
  0
LINE
  5
77
330
17
100
AcDbEntity
  8
0
100
AcDbLine
 10
0.06889763779527558
 20
-2.883858267716535
 30
0.0
 11
-0.06889763779527558
 21
-2.883858267716535
 31
0.0
  0
LINE
  5
78
330
17
100
AcDbEntity
  8
0
100
AcDbLine
 10
-0.06889763779527558
 20
-2.883858267716535
 30
0.0
 11
-0.06889763779527558
 21
-3.021653543307086
 31
0.0
  0
CIRCLE
  5
79
330
17
100
AcDbEntity
  8
0
100
AcDbCircle
 10
5.118110236220472
 20
-2.9527559055118107
 30
0.0
 40
0.05905511811023621
  0
LINE
  5
7A
330
17
100
AcDbEntity
  8
0
100
AcDbLine
 10
0.0
 20
-2.9527559055118107
 30
0.0
 11
5.118110236220472
 21
-2.9527559055118107
 31
0.0
  0
LINE
  5
7B
330
17
100
AcDbEntity
  8
0
100
AcDbLine
 10
5.049212598425196
 20
-3.2185039370078736
 30
0.0
 11
5.187007874015748
 21
-3.2185039370078736
 31
0.0
  0
LINE
  5
7C
330
17
100
AcDbEntity
  8
0
100
AcDbLine
 10
5.187007874015748
 20
-3.2185039370078736
 30
0.0
 11
5.187007874015748
 21
-3.0807086614173227
 31
0.0
  0
LINE
  5
7D
330
17
100
AcDbEntity
  8
0
100
AcDbLine
 10
5.187007874015748
 20
-3.0807086614173227
 30
0.0
 11
5.049212598425196
 21
-3.0807086614173227
 31
0.0
  0
LINE
  5
7E
330
17
100
AcDbEntity
  8
0
100
AcDbLine
 10
5.049212598425196
 20
-3.0807086614173227
 30
0.0
 11
5.049212598425196
 21
-3.2185039370078736
 31
0.0
  0
CIRCLE
  5
7F
330
17
100
AcDbEntity
  8
0
100
AcDbCircle
 10
0.0
 20
-3.149606299212598
 30
0.0
 40
0.05905511811023621
  0
LINE
  5
80
330
17
100
AcDbEntity
  8
0
100
AcDbLine
 10
5.118110236220472
 20
-3.149606299212598
 30
0.0
 11
0.0
 21
-3.149606299212598
 31
0.0
  0
LINE
  5
81
330
17
100
AcDbEntity
  8
0
100
AcDbLine
 10
-0.06889763779527558
 20
-3.415354330708661
 30
0.0
 11
0.06889763779527558
 21
-3.415354330708661
 31
0.0
  0
LINE
  5
82
330
17
100
AcDbEntity
  8
0
100
AcDbLine
 10
0.06889763779527558
 20
-3.415354330708661
 30
0.0
 11
0.06889763779527558
 21
-3.27755905511811
 31
0.0
  0
LINE
  5
83
330
17
100
AcDbEntity
  8
0
100
AcDbLine
 10
0.06889763779527558
 20
-3.27755905511811
 30
0.0
 11
-0.06889763779527558
 21
-3.27755905511811
 31
0.0
  0
LINE
  5
84
330
17
100
AcDbEntity
  8
0
100
AcDbLine
 10
-0.06889763779527558
 20
-3.27755905511811
 30
0.0
 11
-0.06889763779527558
 21
-3.415354330708661
 31
0.0
  0
CIRCLE
  5
85
330
17
100
AcDbEntity
  8
0
100
AcDbCircle
 10
5.708661417322834
 20
-3.3464566929133857
 30
0.0
 40
0.05905511811023621
  0
LINE
  5
86
330
17
100
AcDbEntity
  8
0
100
AcDbLine
 10
0.0
 20
-3.3464566929133857
 30
0.0
 11
5.708661417322834
 21
-3.3464566929133857
 31
0.0
  0
LINE
  5
87
330
17
100
AcDbEntity
  8
0
100
AcDbLine
 10
5.639763779527558
 20
-3.6122047244094486
 30
0.0
 11
5.77755905511811
 21
-3.6122047244094486
 31
0.0
  0
LINE
  5
88
330
17
100
AcDbEntity
  8
0
100
AcDbLine
 10
5.77755905511811
 20
-3.6122047244094486
 30
0.0
 11
5.77755905511811
 21
-3.4744094488188977
 31
0.0
  0
LINE
  5
89
330
17
100
AcDbEntity
  8
0
100
AcDbLine
 10
5.77755905511811
 20
-3.4744094488188977
 30
0.0
 11
5.639763779527558
 21
-3.4744094488188977
 31
0.0
  0
LINE
  5
8A
330
17
100
AcDbEntity
  8
0
100
AcDbLine
 10
5.639763779527558
 20
-3.4744094488188977
 30
0.0
 11
5.639763779527558
 21
-3.6122047244094486
 31
0.0
  0
CIRCLE
  5
8B
330
17
100
AcDbEntity
  8
0
100
AcDbCircle
 10
0.0
 20
-3.543307086614173
 30
0.0
 40
0.05905511811023621
  0
LINE
  5
8C
330
17
100
AcDbEntity
  8
0
100
AcDbLine
 10
5.708661417322834
 20
-3.543307086614173
 30
0.0
 11
0.0
 21
-3.543307086614173
 31
0.0
  0
LINE
  5
8D
330
17
100
AcDbEntity
  8
0
100
AcDbLine
 10
0.5216535433070866
 20
-3.8090551181102357
 30
0.0
 11
0.6594488188976377
 21
-3.8090551181102357
 31
0.0
  0
LINE
  5
8E
330
17
100
AcDbEntity
  8
0
100
AcDbLine
 10
0.6594488188976377
 20
-3.8090551181102357
 30
0.0
 11
0.6594488188976377
 21
-3.6712598425196847
 31
0.0
  0
LINE
  5
8F
330
17
100
AcDbEntity
  8
0
100
AcDbLine
 10
0.6594488188976377
 20
-3.6712598425196847
 30
0.0
 11
0.5216535433070866
 21
-3.6712598425196847
 31
0.0
  0
LINE
  5
90
330
17
100
AcDbEntity
  8
0
100
AcDbLine
 10
0.5216535433070866
 20
-3.6712598425196847
 30
0.0
 11
0.5216535433070866
 21
-3.8090551181102357
 31
0.0
  0
CIRCLE
  5
91
330
17
100
AcDbEntity
  8
0
100
AcDbCircle
 10
1.7716535433070866
 20
-3.74015748031496
 30
0.0
 40
0.05905511811023621
  0
LINE
  5
92
330
17
100
AcDbEntity
  8
0
100
AcDbLine
 10
0.5905511811023622
 20
-3.74015748031496
 30
0.0
 11
1.7716535433070866
 21
-3.74015748031496
 31
0.0
  0
LINE
  5
93
330
17
100
AcDbEntity
  8
0
100
AcDbLine
 10
1.702755905511811
 20
-4.005905511811023
 30
0.0
 11
1.840551181102362
 21
-4.005905511811023
 31
0.0
  0
LINE
  5
94
330
17
100
AcDbEntity
  8
0
100
AcDbLine
 10
1.840551181102362
 20
-4.005905511811023
 30
0.0
 11
1.840551181102362
 21
-3.8681102362204722
 31
0.0
  0
LINE
  5
95
330
17
100
AcDbEntity
  8
0
100
AcDbLine
 10
1.840551181102362
 20
-3.8681102362204722
 30
0.0
 11
1.702755905511811
 21
-3.8681102362204722
 31
0.0
  0
LINE
  5
96
330
17
100
AcDbEntity
  8
0
100
AcDbLine
 10
1.702755905511811
 20
-3.8681102362204722
 30
0.0
 11
1.702755905511811
 21
-4.005905511811023
 31
0.0
  0
CIRCLE
  5
97
330
17
100
AcDbEntity
  8
0
100
AcDbCircle
 10
0.5905511811023622
 20
-3.9370078740157477
 30
0.0
 40
0.05905511811023621
  0
LINE
  5
98
330
17
100
AcDbEntity
  8
0
100
AcDbLine
 10
1.7716535433070866
 20
-3.9370078740157477
 30
0.0
 11
0.5905511811023622
 21
-3.9370078740157477
 31
0.0
  0
LINE
  5
99
330
17
100
AcDbEntity
  8
0
100
AcDbLine
 10
1.3090551181102361
 20
-4.202755905511811
 30
0.0
 11
1.446850393700787
 21
-4.202755905511811
 31
0.0
  0
LINE
  5
9A
330
17
100
AcDbEntity
  8
0
100
AcDbLine
 10
1.446850393700787
 20
-4.202755905511811
 30
0.0
 11
1.446850393700787
 21
-4.064960629921259
 31
0.0
  0
LINE
  5
9B
330
17
100
AcDbEntity
  8
0
100
AcDbLine
 10
1.446850393700787
 20
-4.064960629921259
 30
0.0
 11
1.3090551181102361
 21
-4.064960629921259
 31
0.0
  0
LINE
  5
9C
330
17
100
AcDbEntity
  8
0
100
AcDbLine
 10
1.3090551181102361
 20
-4.064960629921259
 30
0.0
 11
1.3090551181102361
 21
-4.202755905511811
 31
0.0
  0
CIRCLE
  5
9D
330
17
100
AcDbEntity
  8
0
100
AcDbCircle
 10
3.149606299212598
 20
-4.133858267716535
 30
0.0
 40
0.05905511811023621
  0
LINE
  5
9E
330
17
100
AcDbEntity
  8
0
100
AcDbLine
 10
1.3779527559055116
 20
-4.133858267716535
 30
0.0
 11
3.149606299212598
 21
-4.133858267716535
 31
0.0
  0
LINE
  5
9F
330
17
100
AcDbEntity
  8
0
100
AcDbLine
 10
3.0807086614173227
 20
-4.399606299212598
 30
0.0
 11
3.2185039370078736
 21
-4.399606299212598
 31
0.0
  0
LINE
  5
A0
330
17
100
AcDbEntity
  8
0
100
AcDbLine
 10
3.2185039370078736
 20
-4.399606299212598
 30
0.0
 11
3.2185039370078736
 21
-4.261811023622046
 31
0.0
  0
LINE
  5
A1
330
17
100
AcDbEntity
  8
0
100
AcDbLine
 10
3.2185039370078736
 20
-4.261811023622046
 30
0.0
 11
3.0807086614173227
 21
-4.261811023622046
 31
0.0
  0
LINE
  5
A2
330
17
100
AcDbEntity
  8
0
100
AcDbLine
 10
3.0807086614173227
 20
-4.261811023622046
 30
0.0
 11
3.0807086614173227
 21
-4.399606299212598
 31
0.0
  0
CIRCLE
  5
A3
330
17
100
AcDbEntity
  8
0
100
AcDbCircle
 10
1.3779527559055116
 20
-4.330708661417322
 30
0.0
 40
0.05905511811023621
  0
LINE
  5
A4
330
17
100
AcDbEntity
  8
0
100
AcDbLine
 10
3.149606299212598
 20
-4.330708661417322
 30
0.0
 11
1.3779527559055116
 21
-4.330708661417322
 31
0.0
  0
LINE
  5
A5
330
17
100
AcDbEntity
  8
0
100
AcDbLine
 10
1.702755905511811
 20
-4.596456692913386
 30
0.0
 11
1.840551181102362
 21
-4.596456692913386
 31
0.0
  0
LINE
  5
A6
330
17
100
AcDbEntity
  8
0
100
AcDbLine
 10
1.840551181102362
 20
-4.596456692913386
 30
0.0
 11
1.840551181102362
 21
-4.458661417322834
 31
0.0
  0
LINE
  5
A7
330
17
100
AcDbEntity
  8
0
100
AcDbLine
 10
1.840551181102362
 20
-4.458661417322834
 30
0.0
 11
1.702755905511811
 21
-4.458661417322834
 31
0.0
  0
LINE
  5
A8
330
17
100
AcDbEntity
  8
0
100
AcDbLine
 10
1.702755905511811
 20
-4.458661417322834
 30
0.0
 11
1.702755905511811
 21
-4.596456692913386
 31
0.0
  0
CIRCLE
  5
A9
330
17
100
AcDbEntity
  8
0
100
AcDbCircle
 10
3.9370078740157477
 20
-4.52755905511811
 30
0.0
 40
0.05905511811023621
  0
LINE
  5
AA
330
17
100
AcDbEntity
  8
0
100
AcDbLine
 10
1.7716535433070866
 20
-4.52755905511811
 30
0.0
 11
3.9370078740157477
 21
-4.52755905511811
 31
0.0
  0
LINE
  5
AB
330
17
100
AcDbEntity
  8
0
100
AcDbLine
 10
3.8681102362204722
 20
-4.793307086614173
 30
0.0
 11
4.005905511811023
 21
-4.793307086614173
 31
0.0
  0
LINE
  5
AC
330
17
100
AcDbEntity
  8
0
100
AcDbLine
 10
4.005905511811023
 20
-4.793307086614173
 30
0.0
 11
4.005905511811023
 21
-4.655511811023621
 31
0.0
  0
LINE
  5
AD
330
17
100
AcDbEntity
  8
0
100
AcDbLine
 10
4.005905511811023
 20
-4.655511811023621
 30
0.0
 11
3.8681102362204722
 21
-4.655511811023621
 31
0.0
  0
LINE
  5
AE
330
17
100
AcDbEntity
  8
0
100
AcDbLine
 10
3.8681102362204722
 20
-4.655511811023621
 30
0.0
 11
3.8681102362204722
 21
-4.793307086614173
 31
0.0
  0
CIRCLE
  5
AF
330
17
100
AcDbEntity
  8
0
100
AcDbCircle
 10
1.7716535433070866
 20
-4.724409448818897
 30
0.0
 40
0.05905511811023621
  0
LINE
  5
B0
330
17
100
AcDbEntity
  8
0
100
AcDbLine
 10
3.9370078740157477
 20
-4.724409448818897
 30
0.0
 11
1.7716535433070866
 21
-4.724409448818897
 31
0.0
  0
LINE
  5
B1
330
17
100
AcDbEntity
  8
0
100
AcDbLine
 10
2.4901574803149606
 20
-4.99015748031496
 30
0.0
 11
2.6279527559055116
 21
-4.99015748031496
 31
0.0
  0
LINE
  5
B2
330
17
100
AcDbEntity
  8
0
100
AcDbLine
 10
2.6279527559055116
 20
-4.99015748031496
 30
0.0
 11
2.6279527559055116
 21
-4.852362204724408
 31
0.0
  0
LINE
  5
B3
330
17
100
AcDbEntity
  8
0
100
AcDbLine
 10
2.6279527559055116
 20
-4.852362204724408
 30
0.0
 11
2.4901574803149606
 21
-4.852362204724408
 31
0.0
  0
LINE
  5
B4
330
17
100
AcDbEntity
  8
0
100
AcDbLine
 10
2.4901574803149606
 20
-4.852362204724408
 30
0.0
 11
2.4901574803149606
 21
-4.99015748031496
 31
0.0
  0
CIRCLE
  5
B5
330
17
100
AcDbEntity
  8
0
100
AcDbCircle
 10
5.118110236220472
 20
-4.921259842519684
 30
0.0
 40
0.05905511811023621
  0
LINE
  5
B6
330
17
100
AcDbEntity
  8
0
100
AcDbLine
 10
2.559055118110236
 20
-4.921259842519684
 30
0.0
 11
5.118110236220472
 21
-4.921259842519684
 31
0.0
  0
LINE
  5
B7
330
17
100
AcDbEntity
  8
0
100
AcDbLine
 10
5.049212598425196
 20
-5.187007874015748
 30
0.0
 11
5.187007874015748
 21
-5.187007874015748
 31
0.0
  0
LINE
  5
B8
330
17
100
AcDbEntity
  8
0
100
AcDbLine
 10
5.187007874015748
 20
-5.187007874015748
 30
0.0
 11
5.187007874015748
 21
-5.049212598425196
 31
0.0
  0
LINE
  5
B9
330
17
100
AcDbEntity
  8
0
100
AcDbLine
 10
5.187007874015748
 20
-5.049212598425196
 30
0.0
 11
5.049212598425196
 21
-5.049212598425196
 31
0.0
  0
LINE
  5
BA
330
17
100
AcDbEntity
  8
0
100
AcDbLine
 10
5.049212598425196
 20
-5.049212598425196
 30
0.0
 11
5.049212598425196
 21
-5.187007874015748
 31
0.0
  0
CIRCLE
  5
BB
330
17
100
AcDbEntity
  8
0
100
AcDbCircle
 10
2.559055118110236
 20
-5.118110236220472
 30
0.0
 40
0.05905511811023621
  0
LINE
  5
BC
330
17
100
AcDbEntity
  8
0
100
AcDbLine
 10
5.118110236220472
 20
-5.118110236220472
 30
0.0
 11
2.559055118110236
 21
-5.118110236220472
 31
0.0
  0
LINE
  5
BD
330
17
100
AcDbEntity
  8
0
100
AcDbLine
 10
3.0807086614173227
 20
-5.383858267716535
 30
0.0
 11
3.2185039370078736
 21
-5.383858267716535
 31
0.0
  0
LINE
  5
BE
330
17
100
AcDbEntity
  8
0
100
AcDbLine
 10
3.2185039370078736
 20
-5.383858267716535
 30
0.0
 11
3.2185039370078736
 21
-5.246062992125983
 31
0.0
  0
LINE
  5
BF
330
17
100
AcDbEntity
  8
0
100
AcDbLine
 10
3.2185039370078736
 20
-5.246062992125983
 30
0.0
 11
3.0807086614173227
 21
-5.246062992125983
 31
0.0
  0
LINE
  5
C0
330
17
100
AcDbEntity
  8
0
100
AcDbLine
 10
3.0807086614173227
 20
-5.246062992125983
 30
0.0
 11
3.0807086614173227
 21
-5.383858267716535
 31
0.0
  0
CIRCLE
  5
C1
330
17
100
AcDbEntity
  8
0
100
AcDbCircle
 10
5.708661417322834
 20
-5.314960629921259
 30
0.0
 40
0.05905511811023621
  0
LINE
  5
C2
330
17
100
AcDbEntity
  8
0
100
AcDbLine
 10
3.149606299212598
 20
-5.314960629921259
 30
0.0
 11
5.708661417322834
 21
-5.314960629921259
 31
0.0
  0
LINE
  5
C3
330
17
100
AcDbEntity
  8
0
100
AcDbLine
 10
5.639763779527558
 20
-5.580708661417322
 30
0.0
 11
5.77755905511811
 21
-5.580708661417322
 31
0.0
  0
LINE
  5
C4
330
17
100
AcDbEntity
  8
0
100
AcDbLine
 10
5.77755905511811
 20
-5.580708661417322
 30
0.0
 11
5.77755905511811
 21
-5.44291338582677
 31
0.0
  0
LINE
  5
C5
330
17
100
AcDbEntity
  8
0
100
AcDbLine
 10
5.77755905511811
 20
-5.44291338582677
 30
0.0
 11
5.639763779527558
 21
-5.44291338582677
 31
0.0
  0
LINE
  5
C6
330
17
100
AcDbEntity
  8
0
100
AcDbLine
 10
5.639763779527558
 20
-5.44291338582677
 30
0.0
 11
5.639763779527558
 21
-5.580708661417322
 31
0.0
  0
CIRCLE
  5
C7
330
17
100
AcDbEntity
  8
0
100
AcDbCircle
 10
3.149606299212598
 20
-5.511811023622046
 30
0.0
 40
0.05905511811023621
  0
LINE
  5
C8
330
17
100
AcDbEntity
  8
0
100
AcDbLine
 10
5.708661417322834
 20
-5.511811023622046
 30
0.0
 11
3.149606299212598
 21
-5.511811023622046
 31
0.0
  0
LINE
  5
C9
330
17
100
AcDbEntity
  8
0
100
AcDbLine
 10
-0.06889763779527558
 20
-5.77755905511811
 30
0.0
 11
0.06889763779527558
 21
-5.77755905511811
 31
0.0
  0
LINE
  5
CA
330
17
100
AcDbEntity
  8
0
100
AcDbLine
 10
0.06889763779527558
 20
-5.77755905511811
 30
0.0
 11
0.06889763779527558
 21
-5.639763779527558
 31
0.0
  0
LINE
  5
CB
330
17
100
AcDbEntity
  8
0
100
AcDbLine
 10
0.06889763779527558
 20
-5.639763779527558
 30
0.0
 11
-0.06889763779527558
 21
-5.639763779527558
 31
0.0
  0
LINE
  5
CC
330
17
100
AcDbEntity
  8
0
100
AcDbLine
 10
-0.06889763779527558
 20
-5.639763779527558
 30
0.0
 11
-0.06889763779527558
 21
-5.77755905511811
 31
0.0
  0
LINE
  5
CD
330
17
100
AcDbEntity
  8
0
100
AcDbLine
 10
1.702755905511811
 20
-5.77755905511811
 30
0.0
 11
1.840551181102362
 21
-5.77755905511811
 31
0.0
  0
LINE
  5
CE
330
17
100
AcDbEntity
  8
0
100
AcDbLine
 10
1.840551181102362
 20
-5.77755905511811
 30
0.0
 11
1.840551181102362
 21
-5.639763779527558
 31
0.0
  0
LINE
  5
CF
330
17
100
AcDbEntity
  8
0
100
AcDbLine
 10
1.840551181102362
 20
-5.639763779527558
 30
0.0
 11
1.702755905511811
 21
-5.639763779527558
 31
0.0
  0
LINE
  5
D0
330
17
100
AcDbEntity
  8
0
100
AcDbLine
 10
1.702755905511811
 20
-5.639763779527558
 30
0.0
 11
1.702755905511811
 21
-5.77755905511811
 31
0.0
  0
CIRCLE
  5
D1
330
17
100
AcDbEntity
  8
0
100
AcDbCircle
 10
0.19685039370078738
 20
-5.708661417322834
 30
0.0
 40
0.05905511811023621
  0
CIRCLE
  5
D2
330
17
100
AcDbEntity
  8
0
100
AcDbCircle
 10
0.5905511811023622
 20
-5.708661417322834
 30
0.0
 40
0.05905511811023621
  0
CIRCLE
  5
D3
330
17
100
AcDbEntity
  8
0
100
AcDbCircle
 10
1.1811023622047243
 20
-5.708661417322834
 30
0.0
 40
0.05905511811023621
  0
LINE
  5
D4
330
17
100
AcDbEntity
  8
0
100
AcDbLine
 10
0.0
 20
-5.708661417322834
 30
0.0
 11
1.7716535433070866
 21
-5.708661417322834
 31
0.0
  0
LINE
  5
D5
330
17
100
AcDbEntity
  8
0
100
AcDbLine
 10
-0.06889763779527558
 20
-5.974409448818897
 30
0.0
 11
0.06889763779527558
 21
-5.974409448818897
 31
0.0
  0
LINE
  5
D6
330
17
100
AcDbEntity
  8
0
100
AcDbLine
 10
0.06889763779527558
 20
-5.974409448818897
 30
0.0
 11
0.06889763779527558
 21
-5.836614173228345
 31
0.0
  0
LINE
  5
D7
330
17
100
AcDbEntity
  8
0
100
AcDbLine
 10
0.06889763779527558
 20
-5.836614173228345
 30
0.0
 11
-0.06889763779527558
 21
-5.836614173228345
 31
0.0
  0
LINE
  5
D8
330
17
100
AcDbEntity
  8
0
100
AcDbLine
 10
-0.06889763779527558
 20
-5.836614173228345
 30
0.0
 11
-0.06889763779527558
 21
-5.974409448818897
 31
0.0
  0
LINE
  5
D9
330
17
100
AcDbEntity
  8
0
100
AcDbLine
 10
3.0807086614173227
 20
-5.974409448818897
 30
0.0
 11
3.2185039370078736
 21
-5.974409448818897
 31
0.0
  0
LINE
  5
DA
330
17
100
AcDbEntity
  8
0
100
AcDbLine
 10
3.2185039370078736
 20
-5.974409448818897
 30
0.0
 11
3.2185039370078736
 21
-5.836614173228345
 31
0.0
  0
LINE
  5
DB
330
17
100
AcDbEntity
  8
0
100
AcDbLine
 10
3.2185039370078736
 20
-5.836614173228345
 30
0.0
 11
3.0807086614173227
 21
-5.836614173228345
 31
0.0
  0
LINE
  5
DC
330
17
100
AcDbEntity
  8
0
100
AcDbLine
 10
3.0807086614173227
 20
-5.836614173228345
 30
0.0
 11
3.0807086614173227
 21
-5.974409448818897
 31
0.0
  0
CIRCLE
  5
DD
330
17
100
AcDbEntity
  8
0
100
AcDbCircle
 10
0.39370078740157477
 20
-5.905511811023621
 30
0.0
 40
0.05905511811023621
  0
CIRCLE
  5
DE
330
17
100
AcDbEntity
  8
0
100
AcDbCircle
 10
1.3779527559055116
 20
-5.905511811023621
 30
0.0
 40
0.05905511811023621
  0
CIRCLE
  5
DF
330
17
100
AcDbEntity
  8
0
100
AcDbCircle
 10
2.3622047244094486
 20
-5.905511811023621
 30
0.0
 40
0.05905511811023621
  0
LINE
  5
E0
330
17
100
AcDbEntity
  8
0
100
AcDbLine
 10
0.0
 20
-5.905511811023621
 30
0.0
 11
3.149606299212598
 21
-5.905511811023621
 31
0.0
  0
LINE
  5
E1
330
17
100
AcDbEntity
  8
0
100
AcDbLine
 10
-0.06889763779527558
 20
-6.171259842519685
 30
0.0
 11
0.06889763779527558
 21
-6.171259842519685
 31
0.0
  0
LINE
  5
E2
330
17
100
AcDbEntity
  8
0
100
AcDbLine
 10
0.06889763779527558
 20
-6.171259842519685
 30
0.0
 11
0.06889763779527558
 21
-6.033464566929133
 31
0.0
  0
LINE
  5
E3
330
17
100
AcDbEntity
  8
0
100
AcDbLine
 10
0.06889763779527558
 20
-6.033464566929133
 30
0.0
 11
-0.06889763779527558
 21
-6.033464566929133
 31
0.0
  0
LINE
  5
E4
330
17
100
AcDbEntity
  8
0
100
AcDbLine
 10
-0.06889763779527558
 20
-6.033464566929133
 30
0.0
 11
-0.06889763779527558
 21
-6.171259842519685
 31
0.0
  0
LINE
  5
E5
330
17
100
AcDbEntity
  8
0
100
AcDbLine
 10
3.8681102362204722
 20
-6.171259842519685
 30
0.0
 11
4.005905511811023
 21
-6.171259842519685
 31
0.0
  0
LINE
  5
E6
330
17
100
AcDbEntity
  8
0
100
AcDbLine
 10
4.005905511811023
 20
-6.171259842519685
 30
0.0
 11
4.005905511811023
 21
-6.033464566929133
 31
0.0
  0
LINE
  5
E7
330
17
100
AcDbEntity
  8
0
100
AcDbLine
 10
4.005905511811023
 20
-6.033464566929133
 30
0.0
 11
3.8681102362204722
 21
-6.033464566929133
 31
0.0
  0
LINE
  5
E8
330
17
100
AcDbEntity
  8
0
100
AcDbLine
 10
3.8681102362204722
 20
-6.033464566929133
 30
0.0
 11
3.8681102362204722
 21
-6.171259842519685
 31
0.0
  0
CIRCLE
  5
E9
330
17
100
AcDbEntity
  8
0
100
AcDbCircle
 10
0.5905511811023622
 20
-6.102362204724409
 30
0.0
 40
0.05905511811023621
  0
CIRCLE
  5
EA
330
17
100
AcDbEntity
  8
0
100
AcDbCircle
 10
1.7716535433070866
 20
-6.102362204724409
 30
0.0
 40
0.05905511811023621
  0
CIRCLE
  5
EB
330
17
100
AcDbEntity
  8
0
100
AcDbCircle
 10
2.9527559055118107
 20
-6.102362204724409
 30
0.0
 40
0.05905511811023621
  0
LINE
  5
EC
330
17
100
AcDbEntity
  8
0
100
AcDbLine
 10
0.0
 20
-6.102362204724409
 30
0.0
 11
3.9370078740157477
 21
-6.102362204724409
 31
0.0
  0
LINE
  5
ED
330
17
100
AcDbEntity
  8
0
100
AcDbLine
 10
-0.06889763779527558
 20
-6.368110236220472
 30
0.0
 11
0.06889763779527558
 21
-6.368110236220472
 31
0.0
  0
LINE
  5
EE
330
17
100
AcDbEntity
  8
0
100
AcDbLine
 10
0.06889763779527558
 20
-6.368110236220472
 30
0.0
 11
0.06889763779527558
 21
-6.23031496062992
 31
0.0
  0
LINE
  5
EF
330
17
100
AcDbEntity
  8
0
100
AcDbLine
 10
0.06889763779527558
 20
-6.23031496062992
 30
0.0
 11
-0.06889763779527558
 21
-6.23031496062992
 31
0.0
  0
LINE
  5
F0
330
17
100
AcDbEntity
  8
0
100
AcDbLine
 10
-0.06889763779527558
 20
-6.23031496062992
 30
0.0
 11
-0.06889763779527558
 21
-6.368110236220472
 31
0.0
  0
LINE
  5
F1
330
17
100
AcDbEntity
  8
0
100
AcDbLine
 10
5.049212598425196
 20
-6.368110236220472
 30
0.0
 11
5.187007874015748
 21
-6.368110236220472
 31
0.0
  0
LINE
  5
F2
330
17
100
AcDbEntity
  8
0
100
AcDbLine
 10
5.187007874015748
 20
-6.368110236220472
 30
0.0
 11
5.187007874015748
 21
-6.23031496062992
 31
0.0
  0
LINE
  5
F3
330
17
100
AcDbEntity
  8
0
100
AcDbLine
 10
5.187007874015748
 20
-6.23031496062992
 30
0.0
 11
5.049212598425196
 21
-6.23031496062992
 31
0.0
  0
LINE
  5
F4
330
17
100
AcDbEntity
  8
0
100
AcDbLine
 10
5.049212598425196
 20
-6.23031496062992
 30
0.0
 11
5.049212598425196
 21
-6.368110236220472
 31
0.0
  0
CIRCLE
  5
F5
330
17
100
AcDbEntity
  8
0
100
AcDbCircle
 10
0.9842519685039369
 20
-6.299212598425196
 30
0.0
 40
0.05905511811023621
  0
CIRCLE
  5
F6
330
17
100
AcDbEntity
  8
0
100
AcDbCircle
 10
2.559055118110236
 20
-6.299212598425196
 30
0.0
 40
0.05905511811023621
  0
CIRCLE
  5
F7
330
17
100
AcDbEntity
  8
0
100
AcDbCircle
 10
3.9370078740157477
 20
-6.299212598425196
 30
0.0
 40
0.05905511811023621
  0
LINE
  5
F8
330
17
100
AcDbEntity
  8
0
100
AcDbLine
 10
0.0
 20
-6.299212598425196
 30
0.0
 11
5.118110236220472
 21
-6.299212598425196
 31
0.0
  0
LINE
  5
F9
330
17
100
AcDbEntity
  8
0
100
AcDbLine
 10
-0.06889763779527558
 20
-6.564960629921259
 30
0.0
 11
0.06889763779527558
 21
-6.564960629921259
 31
0.0
  0
LINE
  5
FA
330
17
100
AcDbEntity
  8
0
100
AcDbLine
 10
0.06889763779527558
 20
-6.564960629921259
 30
0.0
 11
0.06889763779527558
 21
-6.4271653543307075
 31
0.0
  0
LINE
  5
FB
330
17
100
AcDbEntity
  8
0
100
AcDbLine
 10
0.06889763779527558
 20
-6.4271653543307075
 30
0.0
 11
-0.06889763779527558
 21
-6.4271653543307075
 31
0.0
  0
LINE
  5
FC
330
17
100
AcDbEntity
  8
0
100
AcDbLine
 10
-0.06889763779527558
 20
-6.4271653543307075
 30
0.0
 11
-0.06889763779527558
 21
-6.564960629921259
 31
0.0
  0
LINE
  5
FD
330
17
100
AcDbEntity
  8
0
100
AcDbLine
 10
5.639763779527558
 20
-6.564960629921259
 30
0.0
 11
5.77755905511811
 21
-6.564960629921259
 31
0.0
  0
LINE
  5
FE
330
17
100
AcDbEntity
  8
0
100
AcDbLine
 10
5.77755905511811
 20
-6.564960629921259
 30
0.0
 11
5.77755905511811
 21
-6.4271653543307075
 31
0.0
  0
LINE
  5
FF
330
17
100
AcDbEntity
  8
0
100
AcDbLine
 10
5.77755905511811
 20
-6.4271653543307075
 30
0.0
 11
5.639763779527558
 21
-6.4271653543307075
 31
0.0
  0
LINE
  5
100
330
17
100
AcDbEntity
  8
0
100
AcDbLine
 10
5.639763779527558
 20
-6.4271653543307075
 30
0.0
 11
5.639763779527558
 21
-6.564960629921259
 31
0.0
  0
CIRCLE
  5
101
330
17
100
AcDbEntity
  8
0
100
AcDbCircle
 10
1.3779527559055116
 20
-6.496062992125983
 30
0.0
 40
0.05905511811023621
  0
CIRCLE
  5
102
330
17
100
AcDbEntity
  8
0
100
AcDbCircle
 10
3.149606299212598
 20
-6.496062992125983
 30
0.0
 40
0.05905511811023621
  0
CIRCLE
  5
103
330
17
100
AcDbEntity
  8
0
100
AcDbCircle
 10
4.724409448818897
 20
-6.496062992125983
 30
0.0
 40
0.05905511811023621
  0
LINE
  5
104
330
17
100
AcDbEntity
  8
0
100
AcDbLine
 10
0.0
 20
-6.496062992125983
 30
0.0
 11
5.708661417322834
 21
-6.496062992125983
 31
0.0
  0
LINE
  5
105
330
17
100
AcDbEntity
  8
0
100
AcDbLine
 10
0.5216535433070866
 20
-6.761811023622047
 30
0.0
 11
0.6594488188976377
 21
-6.761811023622047
 31
0.0
  0
LINE
  5
106
330
17
100
AcDbEntity
  8
0
100
AcDbLine
 10
0.6594488188976377
 20
-6.761811023622047
 30
0.0
 11
0.6594488188976377
 21
-6.624015748031495
 31
0.0
  0
LINE
  5
107
330
17
100
AcDbEntity
  8
0
100
AcDbLine
 10
0.6594488188976377
 20
-6.624015748031495
 30
0.0
 11
0.5216535433070866
 21
-6.624015748031495
 31
0.0
  0
LINE
  5
108
330
17
100
AcDbEntity
  8
0
100
AcDbLine
 10
0.5216535433070866
 20
-6.624015748031495
 30
0.0
 11
0.5216535433070866
 21
-6.761811023622047
 31
0.0
  0
LINE
  5
109
330
17
100
AcDbEntity
  8
0
100
AcDbLine
 10
1.702755905511811
 20
-6.761811023622047
 30
0.0
 11
1.840551181102362
 21
-6.761811023622047
 31
0.0
  0
LINE
  5
10A
330
17
100
AcDbEntity
  8
0
100
AcDbLine
 10
1.840551181102362
 20
-6.761811023622047
 30
0.0
 11
1.840551181102362
 21
-6.624015748031495
 31
0.0
  0
LINE
  5
10B
330
17
100
AcDbEntity
  8
0
100
AcDbLine
 10
1.840551181102362
 20
-6.624015748031495
 30
0.0
 11
1.702755905511811
 21
-6.624015748031495
 31
0.0
  0
LINE
  5
10C
330
17
100
AcDbEntity
  8
0
100
AcDbLine
 10
1.702755905511811
 20
-6.624015748031495
 30
0.0
 11
1.702755905511811
 21
-6.761811023622047
 31
0.0
  0
CIRCLE
  5
10D
330
17
100
AcDbEntity
  8
0
100
AcDbCircle
 10
0.7874015748031495
 20
-6.692913385826771
 30
0.0
 40
0.05905511811023621
  0
CIRCLE
  5
10E
330
17
100
AcDbEntity
  8
0
100
AcDbCircle
 10
1.1811023622047243
 20
-6.692913385826771
 30
0.0
 40
0.05905511811023621
  0
CIRCLE
  5
10F
330
17
100
AcDbEntity
  8
0
100
AcDbCircle
 10
1.574803149606299
 20
-6.692913385826771
 30
0.0
 40
0.05905511811023621
  0
LINE
  5
110
330
17
100
AcDbEntity
  8
0
100
AcDbLine
 10
0.5905511811023622
 20
-6.692913385826771
 30
0.0
 11
1.7716535433070866
 21
-6.692913385826771
 31
0.0
  0
LINE
  5
111
330
17
100
AcDbEntity
  8
0
100
AcDbLine
 10
1.3090551181102361
 20
-6.958661417322834
 30
0.0
 11
1.446850393700787
 21
-6.958661417322834
 31
0.0
  0
LINE
  5
112
330
17
100
AcDbEntity
  8
0
100
AcDbLine
 10
1.446850393700787
 20
-6.958661417322834
 30
0.0
 11
1.446850393700787
 21
-6.8208661417322825
 31
0.0
  0
LINE
  5
113
330
17
100
AcDbEntity
  8
0
100
AcDbLine
 10
1.446850393700787
 20
-6.8208661417322825
 30
0.0
 11
1.3090551181102361
 21
-6.8208661417322825
 31
0.0
  0
LINE
  5
114
330
17
100
AcDbEntity
  8
0
100
AcDbLine
 10
1.3090551181102361
 20
-6.8208661417322825
 30
0.0
 11
1.3090551181102361
 21
-6.958661417322834
 31
0.0
  0
LINE
  5
115
330
17
100
AcDbEntity
  8
0
100
AcDbLine
 10
3.0807086614173227
 20
-6.958661417322834
 30
0.0
 11
3.2185039370078736
 21
-6.958661417322834
 31
0.0
  0
LINE
  5
116
330
17
100
AcDbEntity
  8
0
100
AcDbLine
 10
3.2185039370078736
 20
-6.958661417322834
 30
0.0
 11
3.2185039370078736
 21
-6.8208661417322825
 31
0.0
  0
LINE
  5
117
330
17
100
AcDbEntity
  8
0
100
AcDbLine
 10
3.2185039370078736
 20
-6.8208661417322825
 30
0.0
 11
3.0807086614173227
 21
-6.8208661417322825
 31
0.0
  0
LINE
  5
118
330
17
100
AcDbEntity
  8
0
100
AcDbLine
 10
3.0807086614173227
 20
-6.8208661417322825
 30
0.0
 11
3.0807086614173227
 21
-6.958661417322834
 31
0.0
  0
CIRCLE
  5
119
330
17
100
AcDbEntity
  8
0
100
AcDbCircle
 10
1.9685039370078738
 20
-6.889763779527558
 30
0.0
 40
0.05905511811023621
  0
CIRCLE
  5
11A
330
17
100
AcDbEntity
  8
0
100
AcDbCircle
 10
2.3622047244094486
 20
-6.889763779527558
 30
0.0
 40
0.05905511811023621
  0
CIRCLE
  5
11B
330
17
100
AcDbEntity
  8
0
100
AcDbCircle
 10
2.755905511811023
 20
-6.889763779527558
 30
0.0
 40
0.05905511811023621
  0
LINE
  5
11C
330
17
100
AcDbEntity
  8
0
100
AcDbLine
 10
1.3779527559055116
 20
-6.889763779527558
 30
0.0
 11
3.149606299212598
 21
-6.889763779527558
 31
0.0
  0
LINE
  5
11D
330
17
100
AcDbEntity
  8
0
100
AcDbLine
 10
1.702755905511811
 20
-7.155511811023622
 30
0.0
 11
1.840551181102362
 21
-7.155511811023622
 31
0.0
  0
LINE
  5
11E
330
17
100
AcDbEntity
  8
0
100
AcDbLine
 10
1.840551181102362
 20
-7.155511811023622
 30
0.0
 11
1.840551181102362
 21
-7.01771653543307
 31
0.0
  0
LINE
  5
11F
330
17
100
AcDbEntity
  8
0
100
AcDbLine
 10
1.840551181102362
 20
-7.01771653543307
 30
0.0
 11
1.702755905511811
 21
-7.01771653543307
 31
0.0
  0
LINE
  5
120
330
17
100
AcDbEntity
  8
0
100
AcDbLine
 10
1.702755905511811
 20
-7.01771653543307
 30
0.0
 11
1.702755905511811
 21
-7.155511811023622
 31
0.0
  0
LINE
  5
121
330
17
100
AcDbEntity
  8
0
100
AcDbLine
 10
3.8681102362204722
 20
-7.155511811023622
 30
0.0
 11
4.005905511811023
 21
-7.155511811023622
 31
0.0
  0
LINE
  5
122
330
17
100
AcDbEntity
  8
0
100
AcDbLine
 10
4.005905511811023
 20
-7.155511811023622
 30
0.0
 11
4.005905511811023
 21
-7.01771653543307
 31
0.0
  0
LINE
  5
123
330
17
100
AcDbEntity
  8
0
100
AcDbLine
 10
4.005905511811023
 20
-7.01771653543307
 30
0.0
 11
3.8681102362204722
 21
-7.01771653543307
 31
0.0
  0
LINE
  5
124
330
17
100
AcDbEntity
  8
0
100
AcDbLine
 10
3.8681102362204722
 20
-7.01771653543307
 30
0.0
 11
3.8681102362204722
 21
-7.155511811023622
 31
0.0
  0
CIRCLE
  5
125
330
17
100
AcDbEntity
  8
0
100
AcDbCircle
 10
2.3622047244094486
 20
-7.086614173228346
 30
0.0
 40
0.05905511811023621
  0
CIRCLE
  5
126
330
17
100
AcDbEntity
  8
0
100
AcDbCircle
 10
2.9527559055118107
 20
-7.086614173228346
 30
0.0
 40
0.05905511811023621
  0
CIRCLE
  5
127
330
17
100
AcDbEntity
  8
0
100
AcDbCircle
 10
3.74015748031496
 20
-7.086614173228346
 30
0.0
 40
0.05905511811023621
  0
LINE
  5
128
330
17
100
AcDbEntity
  8
0
100
AcDbLine
 10
1.7716535433070866
 20
-7.086614173228346
 30
0.0
 11
3.9370078740157477
 21
-7.086614173228346
 31
0.0
  0
LINE
  5
129
330
17
100
AcDbEntity
  8
0
100
AcDbLine
 10
2.4901574803149606
 20
-7.352362204724409
 30
0.0
 11
2.6279527559055116
 21
-7.352362204724409
 31
0.0
  0
LINE
  5
12A
330
17
100
AcDbEntity
  8
0
100
AcDbLine
 10
2.6279527559055116
 20
-7.352362204724409
 30
0.0
 11
2.6279527559055116
 21
-7.214566929133857
 31
0.0
  0
LINE
  5
12B
330
17
100
AcDbEntity
  8
0
100
AcDbLine
 10
2.6279527559055116
 20
-7.214566929133857
 30
0.0
 11
2.4901574803149606
 21
-7.214566929133857
 31
0.0
  0
LINE
  5
12C
330
17
100
AcDbEntity
  8
0
100
AcDbLine
 10
2.4901574803149606
 20
-7.214566929133857
 30
0.0
 11
2.4901574803149606
 21
-7.352362204724409
 31
0.0
  0
LINE
  5
12D
330
17
100
AcDbEntity
  8
0
100
AcDbLine
 10
5.049212598425196
 20
-7.352362204724409
 30
0.0
 11
5.187007874015748
 21
-7.352362204724409
 31
0.0
  0
LINE
  5
12E
330
17
100
AcDbEntity
  8
0
100
AcDbLine
 10
5.187007874015748
 20
-7.352362204724409
 30
0.0
 11
5.187007874015748
 21
-7.214566929133857
 31
0.0
  0
LINE
  5
12F
330
17
100
AcDbEntity
  8
0
100
AcDbLine
 10
5.187007874015748
 20
-7.214566929133857
 30
0.0
 11
5.049212598425196
 21
-7.214566929133857
 31
0.0
  0
LINE
  5
130
330
17
100
AcDbEntity
  8
0
100
AcDbLine
 10
5.049212598425196
 20
-7.214566929133857
 30
0.0
 11
5.049212598425196
 21
-7.352362204724409
 31
0.0
  0
CIRCLE
  5
131
330
17
100
AcDbEntity
  8
0
100
AcDbCircle
 10
3.149606299212598
 20
-7.283464566929133
 30
0.0
 40
0.05905511811023621
  0
CIRCLE
  5
132
330
17
100
AcDbEntity
  8
0
100
AcDbCircle
 10
3.9370078740157477
 20
-7.283464566929133
 30
0.0
 40
0.05905511811023621
  0
CIRCLE
  5
133
330
17
100
AcDbEntity
  8
0
100
AcDbCircle
 10
4.52755905511811
 20
-7.283464566929133
 30
0.0
 40
0.05905511811023621
  0
LINE
  5
134
330
17
100
AcDbEntity
  8
0
100
AcDbLine
 10
2.559055118110236
 20
-7.283464566929133
 30
0.0
 11
5.118110236220472
 21
-7.283464566929133
 31
0.0
  0
LINE
  5
135
330
17
100
AcDbEntity
  8
0
100
AcDbLine
 10
3.0807086614173227
 20
-7.549212598425196
 30
0.0
 11
3.2185039370078736
 21
-7.549212598425196
 31
0.0
  0
LINE
  5
136
330
17
100
AcDbEntity
  8
0
100
AcDbLine
 10
3.2185039370078736
 20
-7.549212598425196
 30
0.0
 11
3.2185039370078736
 21
-7.4114173228346445
 31
0.0
  0
LINE
  5
137
330
17
100
AcDbEntity
  8
0
100
AcDbLine
 10
3.2185039370078736
 20
-7.4114173228346445
 30
0.0
 11
3.0807086614173227
 21
-7.4114173228346445
 31
0.0
  0
LINE
  5
138
330
17
100
AcDbEntity
  8
0
100
AcDbLine
 10
3.0807086614173227
 20
-7.4114173228346445
 30
0.0
 11
3.0807086614173227
 21
-7.549212598425196
 31
0.0
  0
LINE
  5
139
330
17
100
AcDbEntity
  8
0
100
AcDbLine
 10
5.639763779527558
 20
-7.549212598425196
 30
0.0
 11
5.77755905511811
 21
-7.549212598425196
 31
0.0
  0
LINE
  5
13A
330
17
100
AcDbEntity
  8
0
100
AcDbLine
 10
5.77755905511811
 20
-7.549212598425196
 30
0.0
 11
5.77755905511811
 21
-7.4114173228346445
 31
0.0
  0
LINE
  5
13B
330
17
100
AcDbEntity
  8
0
100
AcDbLine
 10
5.77755905511811
 20
-7.4114173228346445
 30
0.0
 11
5.639763779527558
 21
-7.4114173228346445
 31
0.0
  0
LINE
  5
13C
330
17
100
AcDbEntity
  8
0
100
AcDbLine
 10
5.639763779527558
 20
-7.4114173228346445
 30
0.0
 11
5.639763779527558
 21
-7.549212598425196
 31
0.0
  0
CIRCLE
  5
13D
330
17
100
AcDbEntity
  8
0
100
AcDbCircle
 10
4.133858267716535
 20
-7.48031496062992
 30
0.0
 40
0.05905511811023621
  0
CIRCLE
  5
13E
330
17
100
AcDbEntity
  8
0
100
AcDbCircle
 10
4.724409448818897
 20
-7.48031496062992
 30
0.0
 40
0.05905511811023621
  0
CIRCLE
  5
13F
330
17
100
AcDbEntity
  8
0
100
AcDbCircle
 10
5.511811023622046
 20
-7.48031496062992
 30
0.0
 40
0.05905511811023621
  0
LINE
  5
140
330
17
100
AcDbEntity
  8
0
100
AcDbLine
 10
3.149606299212598
 20
-7.48031496062992
 30
0.0
 11
5.708661417322834
 21
-7.48031496062992
 31
0.0
  0
ENDSEC
  0
SECTION
  2
OBJECTS
  0
DICTIONARY
  5
A
330
0
100
AcDbDictionary
281
1
  3
ACAD_COLOR
350
B
  3
ACAD_GROUP
350
C
  3
ACAD_LAYOUT
350
D
  3
ACAD_MATERIAL
350
E
  3
ACAD_MLEADERSTYLE
350
F
  3
ACAD_MLINESTYLE
350
10
  3
ACAD_PLOTSETTINGS
350
11
  3
ACAD_PLOTSTYLENAME
350
12
  3
ACAD_SCALELIST
350
14
  3
ACAD_TABLESTYLE
350
15
  3
ACAD_VISUALSTYLE
350
16
  0
DICTIONARY
  5
B
330
A
100
AcDbDictionary
281
1
  0
DICTIONARY
  5
C
330
A
100
AcDbDictionary
281
1
  0
DICTIONARY
  5
D
330
A
100
AcDbDictionary
281
1
  3
Model
350
1A
  3
Layout1
350
1E
  0
DICTIONARY
  5
E
330
A
100
AcDbDictionary
281
1
  3
ByBlock
350
1F
  3
ByLayer
350
20
  3
Global
350
21
  0
DICTIONARY
  5
F
330
A
100
AcDbDictionary
281
1
  3
Standard
350
2C
  0
DICTIONARY
  5
10
330
A
100
AcDbDictionary
281
1
  3
Standard
350
22
  0
DICTIONARY
  5
11
330
A
100
AcDbDictionary
281
1
  0
ACDBDICTIONARYWDFLT
  5
12
330
A
100
AcDbDictionary
281
1
  3
Normal
350
13
100
AcDbDictionaryWithDefault
340
13
  0
ACDBPLACEHOLDER
  5
13
330
12
  0
DICTIONARY
  5
14
330
A
100
AcDbDictionary
281
1
  0
DICTIONARY
  5
15
330
A
100
AcDbDictionary
281
1
  0
DICTIONARY
  5
16
330
A
100
AcDbDictionary
281
1
  0
LAYOUT
  5
1A
330
D
100
AcDbPlotSettings
  1

  2
Adobe PDF
  4
A4
  6

 40
3.175
 41
3.175
 42
3.175
 43
3.175
 44
209.91
 45
297.03
 46
0.0
 47
0.0
 48
0.0
 49
0.0
140
0.0
141
0.0
142
1.0
143
1.0
 70
1024
 72
0
 73
1
 74
5
  7

 75
16
 76
0
 77
2
 78
300
147
1.0
148
0.0
149
0.0
100
AcDbLayout
  1
Model
 70
1
 71
0
 10
-3.175
 20
-3.175
 11
293.857
 21
206.735
 12
0.0
 22
0.0
 32
0.0
 14
29.068
 24
20.356
 34
0.0
 15
261.614
 25
183.204
 35
0.0
146
0.0
 13
0.0
 23
0.0
 33
0.0
 16
1.0
 26
0.0
 36
0.0
 17
0.0
 27
1.0
 37
0.0
 76
1
330
17
  0
LAYOUT
  5
1E
330
D
100
AcDbPlotSettings
  1

  2
Adobe PDF
  4
A4
  6

 40
3.175
 41
3.175
 42
3.175
 43
3.175
 44
209.91
 45
297.03
 46
0.0
 47
0.0
 48
0.0
 49
0.0
140
0.0
141
0.0
142
1.0
143
1.0
 70
0
 72
0
 73
1
 74
5
  7

 75
16
 76
0
 77
2
 78
300
147
1.0
148
0.0
149
0.0
100
AcDbLayout
  1
Layout1
 70
1
 71
1
 10
-3.175
 20
-3.175
 11
293.857
 21
206.735
 12
0.0
 22
0.0
 32
0.0
 14
29.068
 24
20.356
 34
0.0
 15
261.614
 25
183.204
 35
0.0
146
0.0
 13
0.0
 23
0.0
 33
0.0
 16
1.0
 26
0.0
 36
0.0
 17
0.0
 27
1.0
 37
0.0
 76
1
330
1B
  0
MATERIAL
  5
1F
102
{ACAD_REACTORS
330
E
102
}
330
E
100
AcDbMaterial
  1
ByBlock
  2

 70
0
 40
1.0
 71
1
 41
1.0
 91
-1023410177
 42
1.0
 72
1
  3

 73
1
 74
1
 75
1
 44
0.5
 73
0
 45
1.0
 46
1.0
 77
1
  4

 78
1
 79
1
170
1
 48
1.0
171
1
  6

172
1
173
1
174
1
140
1.0
141
1.0
175
1
  7

176
1
177
1
178
1
143
1.0
179
1
  8

270
1
271
1
272
1
145
1.0
146
1.0
273
1
  9

274
1
275
1
276
1
 42
1.0
 72
1
  3

 73
1
 74
1
 75
1
 94
63
  0
MATERIAL
  5
20
102
{ACAD_REACTORS
330
E
102
}
330
E
100
AcDbMaterial
  1
ByLayer
  2

 70
0
 40
1.0
 71
1
 41
1.0
 91
-1023410177
 42
1.0
 72
1
  3

 73
1
 74
1
 75
1
 44
0.5
 73
0
 45
1.0
 46
1.0
 77
1
  4

 78
1
 79
1
170
1
 48
1.0
171
1
  6

172
1
173
1
174
1
140
1.0
141
1.0
175
1
  7

176
1
177
1
178
1
143
1.0
179
1
  8

270
1
271
1
272
1
145
1.0
146
1.0
273
1
  9

274
1
275
1
276
1
 42
1.0
 72
1
  3

 73
1
 74
1
 75
1
 94
63
  0
MATERIAL
  5
21
102
{ACAD_REACTORS
330
E
102
}
330
E
100
AcDbMaterial
  1
Global
  2

 70
0
 40
1.0
 71
1
 41
1.0
 91
-1023410177
 42
1.0
 72
1
  3

 73
1
 74
1
 75
1
 44
0.5
 73
0
 45
1.0
 46
1.0
 77
1
  4

 78
1
 79
1
170
1
 48
1.0
171
1
  6

172
1
173
1
174
1
140
1.0
141
1.0
175
1
  7

176
1
177
1
178
1
143
1.0
179
1
  8

270
1
271
1
272
1
145
1.0
146
1.0
273
1
  9

274
1
275
1
276
1
 42
1.0
 72
1
  3

 73
1
 74
1
 75
1
 94
63
  0
MLINESTYLE
  5
22
102
{ACAD_REACTORS
330
10
102
}
330
10
100
AcDbMlineStyle
  2
Standard
 70
0
  3

 62
256
 51
90.0
 52
90.0
 71
2
 49
0.5
 62
256
  6
BYLAYER
 49
-0.5
 62
256
  6
BYLAYER
  0
MLEADERSTYLE
  5
2C
102
{ACAD_REACTORS
330
F
102
}
330
F
100
AcDbMLeaderStyle
179
2
170
2
171
1
172
0
 90
2
 40
0.0
 41
0.0
173
1
 91
-1056964608
 92
-2
290
1
 42
2.0
291
1
 43
8.0
  3
Standard
 44
4.0
300

342
29
174
1
175
1
176
0
178
1
 93
-1056964608
 45
4.0
292
0
297
0
 46
4.0
 94
-1056964608
 47
1.0
 49
0.0
140
1.0
294
1
141
0.0
177
0
142
1.0
295
0
296
0
143
3.75
271
0
272
9
272
9
  0
ENDSEC
  0
EOF
